#!OML:ASF H:\charlestonDancing\Project 1\Capture day 1\Session 1\femaleDancer.ASF
:FULLY-SPECIFIED
:DEGREES
317
root -0.144882 18.041 -2.3868 -182.694 -115.217 198.194
lowerback 19.111 0.233305 7.2928
upperback 2.20105 1.84457 1.60611
thorax -8.14027 0.622689 -2.86619
lowerneck 4.39046 -4.81711 -2.47672
upperneck -8.08349 -7.30395 -5.76728
head -3.54133 -3.37787 -1.13279
rclavicle -4.05521e-014 9.54166e-015
rhumerus -24.9275 4.64329 -60.6886
rradius 72.1727
rwrist 21.9848
rhand -41.5239 -40.6831
rfingers 7.12502
rthumb -14.4364 -70.161
lclavicle -4.05521e-014 9.54166e-015
lhumerus -53.5997 24.6282 18.2589
lradius 133.974
lwrist 8.21057
lhand -16.612 -13.2325
lfingers 7.12502
lthumb 9.60975 16.5283
rfemur -34.0909 -7.22131 16.8476
rtibia 36.8099
rfoot -15.9609 -7.4892
rtoes -6.84703
lfemur -13.2643 -12.1881 -19.6519
ltibia 36.1717
lfoot -18.8133 -7.30872
ltoes -25.9427
318
root -0.11134 17.9975 -2.35232 -180.392 -115.282 195.126
lowerback 19.2413 0.010459 8.48484
upperback 2.08931 1.85957 2.14779
thorax -8.31411 0.5846 -2.95436
lowerneck 5.01919 -5.5071 -2.52631
upperneck -8.89138 -8.34313 -5.75672
head -3.96806 -3.85927 -1.04488
rclavicle 1.06549e-013 4.45278e-014
rhumerus -24.486 4.99146 -60.2274
rradius 70.9922
rwrist 23.4275
rhand -41.4815 -41.1154
rfingers 7.12502
rthumb -14.3956 -70.5962
lclavicle 1.06549e-013 4.45278e-014
lhumerus -53.6055 24.4509 18.2646
lradius 134.107
lwrist 8.04904
lhand -16.954 -13.0806
lfingers 7.12502
lthumb 9.27975 16.6952
rfemur -33.75 -7.36867 18.1219
rtibia 36.9801
rfoot -15.9848 -7.39581
rtoes -6.26368
lfemur -11.2523 -15.2509 -18.2495
ltibia 31.1794
lfoot -20.4101 -6.21497
ltoes -25.0983
319
root -0.0705855 17.9651 -2.32227 -177.595 -115.62 191.472
lowerback 19.3909 -0.266212 9.85334
upperback 1.96545 1.85337 2.749
thorax -8.51224 0.525764 -3.06511
lowerneck 5.65746 -6.27257 -2.373
upperneck -9.58915 -9.45753 -5.7282
head -4.37582 -4.38544 -0.970528
rclavicle 3.18055e-015 4.13472e-014
rhumerus -24.1998 4.68331 -59.8469
rradius 69.276
rwrist 25.6618
rhand -40.8151 -41.7051
rfingers 7.12502
rthumb -13.7534 -71.2305
lclavicle 3.18055e-015 4.13472e-014
lhumerus -53.4473 24.3336 18.5898
lradius 134.424
lwrist 7.81565
lhand -17.1156 -12.8281
lfingers 7.12502
lthumb 9.12383 16.9546
rfemur -33.2001 -7.51353 19.6063
rtibia 36.9514
rfoot -15.8581 -7.52976
rtoes -6.81516
lfemur -9.8787 -17.6469 -16.8083
ltibia 27.9718
lfoot -20.5732 -5.94069
ltoes -21.4575
320
root -0.000651047 17.9505 -2.30041 -173.552 -115.85 186.844
lowerback 19.5092 -0.462954 11.5655
upperback 1.69409 2.04437 3.37189
thorax -8.82328 0.533296 -3.38436
lowerneck 6.12627 -7.14782 -2.45292
upperneck -9.98161 -10.6386 -5.17117
head -4.59225 -4.97114 -0.676612
rclavicle 8.74653e-015 -3.97569e-014
rhumerus -24.1896 4.09191 -59.8028
rradius 67.0694
rwrist 26.9197
rhand -40.4215 -41.4138
rfingers 7.12502
rthumb -13.3741 -70.9646
lclavicle 8.74653e-015 -3.97569e-014
lhumerus -53.0897 24.1993 19.2561
lradius 135.019
lwrist 7.54958
lhand -17.2695 -12.4641
lfingers 7.12502
lthumb 8.97529 17.325
rfemur -33.023 -7.47066 21.636
rtibia 36.6034
rfoot -15.4217 -7.60594
rtoes -7.42084
lfemur -9.91149 -17.6251 -14.9935
ltibia 26.8771
lfoot -18.9945 -7.03405
ltoes -16.0764
321
root 0.0578232 17.9552 -2.28792 -174.773 -116.985 188.003
lowerback 19.5123 -0.841437 10.8349
upperback 1.49892 1.42431 3.34759
thorax -9.14922 0.25181 -2.84181
lowerneck 6.56868 -8.16319 -2.85016
upperneck -10.4461 -11.9663 -4.02961
head -4.75553 -5.64603 -0.121972
rclavicle -1.66979e-014 -7.95139e-015
rhumerus -24.3006 3.22386 -60.2289
rradius 64.6475
rwrist 27.2602
rhand -40.8791 -41.5648
rfingers 7.12502
rthumb -13.8151 -71.0861
lclavicle -1.66979e-014 -7.95139e-015
lhumerus -52.8134 24.2492 19.8837
lradius 135.749
lwrist 7.18782
lhand -17.307 -12.3822
lfingers 7.12502
lthumb 8.93909 17.4084
rfemur -32.7015 -7.96014 20.7795
rtibia 36.2465
rfoot -15.0098 -8.18951
rtoes -7.60323
lfemur -10.494 -17.4577 -16.1365
ltibia 27.3649
lfoot -18.2683 -8.10698
ltoes -22.9959
322
root 0.116318 17.9786 -2.28244 -175.41 -117.802 188.661
lowerback 19.3239 -1.12646 10.0741
upperback 1.44411 0.874218 3.3319
thorax -9.18704 0.0232758 -2.28771
lowerneck 7.03258 -9.28001 -3.3185
upperneck -11.4835 -13.4313 -2.68026
head -4.57493 -6.38832 0.503885
rclavicle -4.53229e-014 -3.18055e-014
rhumerus -24.4794 2.08318 -60.9944
rradius 62.1886
rwrist 26.8477
rhand -41.639 -43.3668
rfingers 7.12502
rthumb -14.5474 -72.8367
lclavicle -4.53229e-014 -3.18055e-014
lhumerus -52.506 24.427 20.5348
lradius 136.555
lwrist 6.67828
lhand -17.1859 -12.4592
lfingers 7.12502
lthumb 9.05596 17.3264
rfemur -32.4118 -7.98291 20.1136
rtibia 35.7379
rfoot -14.592 -8.84692
rtoes -7.60403
lfemur -11.5649 -16.8473 -17.1344
ltibia 28.7417
lfoot -16.801 -10.8008
ltoes -21.782
